<svg width="16" height="17" viewBox="0 0 16 17" fill="none" xmlns="http://www.w3.org/2000/svg">
<g clip-path="url(#clip0_5002_131)">
<path d="M-12 8.30017C-12 10.9266 -11.4827 13.5273 -10.4776 15.9538C-9.4725 18.3804 -7.99931 20.5851 -6.14213 22.4423C-4.28496 24.2995 -2.08018 25.7727 0.346332 26.7778C2.77284 27.7829 5.37356 28.3002 8 28.3002C10.6264 28.3002 13.2272 27.7829 15.6537 26.7778C18.0802 25.7727 20.285 24.2995 22.1421 22.4423C23.9993 20.5851 25.4725 18.3804 26.4776 15.9538C27.4827 13.5273 28 10.9266 28 8.30017C28 5.67373 27.4827 3.07302 26.4776 0.646503C25.4725 -1.78001 23.9993 -3.98479 22.1421 -5.84196C20.285 -7.69914 18.0802 -9.17233 15.6537 -10.1774C13.2272 -11.1825 10.6264 -11.6998 8 -11.6998C5.37356 -11.6998 2.77284 -11.1825 0.346332 -10.1774C-2.08018 -9.17233 -4.28496 -7.69914 -6.14213 -5.84196C-7.99931 -3.98479 -9.4725 -1.78001 -10.4776 0.646503C-11.4827 3.07302 -12 5.67373 -12 8.30017Z" fill="#FFF1DC"/>
<path d="M13.564 6.69873C13.4626 6.27988 13.0785 5.58345 12.6806 5.01039C12.5055 4.75869 12.1175 4.82037 12.0259 5.11386C11.8827 5.56753 11.6548 6.08886 11.2589 6.55745C11.1863 6.64301 11.045 6.59924 11.038 6.48682C10.9624 5.32578 10.4122 2.32418 6.53214 1.90235C6.26452 1.8735 6.05559 2.13316 6.14314 2.38786C6.43564 3.24346 6.67043 4.88802 5.33031 5.89585C5.27559 5.93664 5.19998 5.92271 5.1572 5.86998C4.7105 5.3009 4.15336 4.9517 3.39823 4.81042C3.13458 4.76167 2.91272 5.00144 2.97341 5.2631C3.09081 5.76751 3.13956 6.62809 2.65903 7.80007C1.85217 9.76499 0.921943 14.5106 8.32494 14.5106C15.7279 14.5106 13.7063 7.28671 13.564 6.69873ZM4.92141 12.0015C4.86495 12.0545 4.79861 12.0957 4.72617 12.123C4.65373 12.1503 4.57662 12.163 4.49927 12.1604C4.42192 12.1578 4.34583 12.14 4.27538 12.1079C4.20492 12.0759 4.14148 12.0302 4.08869 11.9737C3.10275 10.9191 3.53155 8.95216 3.58328 8.73129C3.6579 8.41492 3.97527 8.21793 4.29165 8.29354C4.36685 8.31122 4.43784 8.34354 4.50054 8.38866C4.56325 8.43378 4.61645 8.49082 4.65711 8.55651C4.69776 8.62221 4.72507 8.69527 4.73747 8.77152C4.74988 8.84777 4.74713 8.92572 4.7294 9.00091C4.63588 9.40285 4.4757 10.6624 4.94827 11.1688C5.17113 11.4066 5.15919 11.7796 4.92141 12.0015Z" fill="#FC7032"/>
<path d="M13.4387 6.33659C13.2686 5.93763 12.9781 5.43919 12.6806 5.01039C12.5055 4.75869 12.1175 4.82037 12.0259 5.11386C11.8827 5.56753 11.6548 6.08886 11.2589 6.55745C11.1863 6.64301 11.045 6.59924 11.038 6.48682C10.9624 5.32578 10.4122 2.32418 6.53214 1.90235C6.26452 1.8735 6.05559 2.13316 6.14314 2.38786C6.43564 3.24346 6.67043 4.88802 5.33031 5.89585C5.27559 5.93664 5.19998 5.92271 5.1572 5.86998C4.71049 5.3009 4.15335 4.9517 3.39823 4.81042C3.13458 4.76167 2.91272 5.00144 2.97341 5.2631C3.09081 5.76751 3.13956 6.62809 2.65902 7.80007C1.95464 9.51527 1.15773 13.3476 5.88745 14.2957C10.0033 13.8888 13.2447 10.5112 13.4387 6.33659ZM4.92141 12.0015C4.86495 12.0545 4.7986 12.0957 4.72617 12.123C4.65373 12.1503 4.57662 12.163 4.49927 12.1604C4.42191 12.1578 4.34583 12.14 4.27537 12.1079C4.20492 12.0759 4.14148 12.0302 4.08869 11.9736C3.10275 10.9191 3.53154 8.95216 3.58328 8.73129C3.6579 8.41492 3.97527 8.21793 4.29164 8.29354C4.36685 8.31122 4.43783 8.34354 4.50054 8.38866C4.56325 8.43378 4.61645 8.49082 4.6571 8.55651C4.69776 8.62221 4.72507 8.69527 4.73747 8.77152C4.74988 8.84777 4.74713 8.92572 4.7294 9.00091C4.63588 9.40285 4.4757 10.6624 4.94827 11.1688C5.17113 11.4066 5.15919 11.7796 4.92141 12.0015Z" fill="#FF7C33"/>
<path d="M10.8269 5.27205C10.4419 3.92795 9.39324 2.21375 6.53094 1.90235C6.26331 1.8735 6.05438 2.13316 6.14193 2.38786C6.43443 3.24346 6.66923 4.88802 5.32911 5.89585C5.27439 5.93664 5.19877 5.92271 5.15599 5.86998C4.70929 5.3009 4.15215 4.9517 3.39702 4.81042C3.13338 4.76167 2.91151 5.00144 2.9722 5.2631C3.0896 5.76751 3.13835 6.62809 2.65782 7.80007C2.30562 8.65767 1.92956 10.0455 2.23499 11.3379C2.4081 11.3489 2.58121 11.3558 2.75731 11.3558C3.06672 11.3558 3.37116 11.3379 3.67161 11.3051C3.24878 10.2455 3.54029 8.91236 3.58207 8.73229C3.65669 8.41591 3.97406 8.21892 4.29044 8.29454C4.36564 8.31221 4.43663 8.34453 4.49933 8.38966C4.56204 8.43478 4.61524 8.49182 4.6559 8.55751C4.69655 8.6232 4.72386 8.69626 4.73626 8.77251C4.74867 8.84876 4.74592 8.92671 4.72819 9.0019C4.63964 9.38295 4.4924 10.534 4.87941 11.0832C7.74769 10.3361 10.0151 8.11148 10.8269 5.27205Z" fill="#FF8D4D"/>
<path d="M6.531 1.90235C6.26337 1.8735 6.05444 2.13316 6.14199 2.38786C6.43449 3.24346 6.66929 4.88802 5.32916 5.89585C5.27445 5.93664 5.19883 5.92271 5.15605 5.86998C4.70935 5.3009 4.15221 4.9517 3.39708 4.81042C3.13343 4.76167 2.91157 5.00144 2.97226 5.2631C3.08966 5.76751 3.13841 6.62809 2.65788 7.80007C2.60798 7.92302 2.56088 8.04708 2.5166 8.17216C5.42766 7.50857 7.76367 5.33473 8.65211 2.5162C8.089 2.21673 7.39257 1.99587 6.531 1.90235Z" fill="#FFA56A"/>
</g>
<defs>
<clipPath id="clip0_5002_131">
<rect y="0.300171" width="16" height="16" rx="8" fill="white"/>
</clipPath>
</defs>
</svg>
