<svg width="16" height="16" viewBox="0 0 16 16" fill="none" xmlns="http://www.w3.org/2000/svg">
<path fill-rule="evenodd" clip-rule="evenodd" d="M8.03448 1.33333H7.96569C6.84554 1.33332 5.95829 1.33332 5.26392 1.4283C4.5493 1.52606 3.97089 1.73202 3.51474 2.19612C3.0586 2.66022 2.85617 3.24872 2.76009 3.9758C2.66673 4.68229 2.66674 5.585 2.66675 6.7247V9.2753C2.66674 10.415 2.66673 11.3177 2.76009 12.0242C2.85617 12.7513 3.0586 13.3398 3.51474 13.8039C3.97089 14.268 4.5493 14.4739 5.26392 14.5717C5.95829 14.6667 6.84552 14.6667 7.96567 14.6667H8.03447C9.15461 14.6667 10.0419 14.6667 10.7362 14.5717C11.4509 14.4739 12.0293 14.268 12.4854 13.8039C12.9416 13.3398 13.144 12.7513 13.2401 12.0242C13.3334 11.3177 13.3334 10.415 13.3334 9.27532V6.72471C13.3334 5.58502 13.3334 4.68229 13.2401 3.9758C13.144 3.24872 12.9416 2.66022 12.4854 2.19612C12.0293 1.73202 11.4509 1.52606 10.7362 1.4283C10.0419 1.33332 9.15463 1.33332 8.03448 1.33333ZM5.71437 12.3411C5.71437 12.0842 5.91904 11.876 6.17151 11.876H9.82865C10.0811 11.876 10.2858 12.0842 10.2858 12.3411C10.2858 12.598 10.0811 12.8062 9.82865 12.8062H6.17151C5.91904 12.8062 5.71437 12.598 5.71437 12.3411Z" fill="white"/>
</svg>
