<svg width="36" height="37" viewBox="0 0 36 37" fill="none" xmlns="http://www.w3.org/2000/svg">
<path d="M23.7664 3.80029C23.8354 3.80029 23.9044 3.80029 23.9773 3.80029C24.1465 5.63194 23.3484 7.00054 22.3785 7.99165C21.4269 8.97591 20.1239 9.93051 18.0161 9.78565C17.8756 7.98024 18.6749 6.71314 19.6435 5.72433C20.5418 4.8028 22.1885 3.98277 23.7664 3.80029Z" fill="white"/>
<path d="M30 25.9142C30 25.935 30 25.9533 30 25.9728C29.4118 27.767 28.5729 29.3046 27.549 30.7316C26.6145 32.027 25.4691 33.7703 23.4242 33.7703C21.657 33.7703 20.4832 32.6259 18.6721 32.5946C16.7565 32.5634 15.7029 33.5516 13.9513 33.8003C13.7509 33.8003 13.5506 33.8003 13.3541 33.8003C12.0679 33.6128 11.0298 32.5868 10.2736 31.6625C8.04374 28.931 6.32058 25.4025 6 20.8874C6 20.4447 6 20.0033 6 19.5606C6.13574 16.3292 7.69472 13.7018 9.76689 12.4285C10.8605 11.7514 12.3639 11.1747 14.0379 11.4324C14.7554 11.5444 15.4882 11.7918 16.1308 12.0366C16.7397 12.2722 17.5009 12.6902 18.2223 12.668C18.711 12.6537 19.197 12.3972 19.6896 12.2162C21.1321 11.6915 22.5463 11.09 24.4104 11.3726C26.6507 11.7137 28.2407 12.7162 29.2231 14.2629C27.328 15.4777 25.8298 17.3082 26.0857 20.4342C26.3133 23.2739 27.9524 24.9351 30 25.9142Z" fill="white"/>
</svg>
