<svg width="26" height="23" viewBox="0 0 26 23" fill="none" xmlns="http://www.w3.org/2000/svg">
<path fill-rule="evenodd" clip-rule="evenodd" d="M7.86475 2.73456C8.17605 1.20637 9.53595 0.125122 11.094 0.125122H14.9059C16.4639 0.125122 17.8238 1.20637 18.1351 2.73456C18.207 3.08734 18.5266 3.34612 18.8589 3.34612H18.878L18.8972 3.34696C20.5345 3.41855 21.7921 3.61948 22.8421 4.3083C23.5036 4.74229 24.0727 5.30065 24.5161 5.9522C25.0678 6.76284 25.3111 7.69322 25.4277 8.81848C25.5416 9.91788 25.5416 11.296 25.5416 13.0413V13.1407C25.5416 14.8861 25.5416 16.2642 25.4277 17.3636C25.3111 18.4888 25.0678 19.4192 24.5161 20.2299C24.0727 20.8814 23.5036 21.4398 22.8421 21.8738C22.0214 22.4122 21.0805 22.6496 19.9393 22.7635C18.822 22.8751 17.4204 22.8751 15.6406 22.8751H10.3592C8.5794 22.8751 7.17786 22.8751 6.06054 22.7635C4.91934 22.6496 3.97845 22.4122 3.15774 21.8738C2.4962 21.4398 1.92715 20.8814 1.48374 20.2299C0.932056 19.4192 0.688733 18.4888 0.572144 17.3636C0.458234 16.2642 0.458242 14.8861 0.458252 13.1407V13.0414C0.458242 11.296 0.458234 9.91788 0.572144 8.81848C0.688733 7.69322 0.932056 6.76284 1.48374 5.9522C1.92715 5.30065 2.4962 4.74229 3.15774 4.3083C4.20772 3.61948 5.46535 3.41855 7.10269 3.34696L7.12179 3.34612H7.14091C7.47328 3.34612 7.79289 3.08734 7.86475 2.73456ZM11.094 1.87512C10.346 1.87512 9.72048 2.39195 9.57953 3.08387C9.35126 4.20448 8.35775 5.08563 7.1623 5.09603C5.58893 5.16593 4.74617 5.35921 4.11767 5.77153C3.64686 6.08039 3.24369 6.47657 2.93049 6.93679C2.60831 7.41019 2.4147 8.01558 2.31283 8.99883C2.20935 9.99753 2.20825 11.285 2.20825 13.091C2.20825 14.8971 2.20935 16.1845 2.31283 17.1832C2.4147 18.1665 2.60831 18.7719 2.93049 19.2453C3.24369 19.7055 3.64686 20.1017 4.11767 20.4105C4.60478 20.7301 5.2281 20.9217 6.23446 21.0222C7.25465 21.1241 8.56884 21.1251 10.4073 21.1251H15.5925C17.431 21.1251 18.7452 21.1241 19.7654 21.0222C20.7717 20.9217 21.3951 20.7301 21.8822 20.4105C22.353 20.1017 22.7562 19.7055 23.0694 19.2453C23.3915 18.7719 23.5851 18.1665 23.687 17.1832C23.7905 16.1845 23.7916 14.8971 23.7916 13.091C23.7916 11.285 23.7905 9.99753 23.687 8.99883C23.5851 8.01558 23.3915 7.41019 23.0694 6.93679C22.7562 6.47657 22.353 6.08039 21.8822 5.77153C21.2537 5.35921 20.4109 5.16593 18.8375 5.09603C17.6421 5.08563 16.6486 4.20448 16.4203 3.08387C16.2794 2.39195 15.6538 1.87512 14.9059 1.87512H11.094ZM12.9999 10.0418C11.5502 10.0418 10.3749 11.217 10.3749 12.6668C10.3749 14.1165 11.5502 15.2918 12.9999 15.2918C14.4497 15.2918 15.6249 14.1165 15.6249 12.6668C15.6249 11.217 14.4497 10.0418 12.9999 10.0418ZM8.62492 12.6668C8.62492 10.2505 10.5837 8.29179 12.9999 8.29179C15.4162 8.29179 17.3749 10.2505 17.3749 12.6668C17.3749 15.083 15.4162 17.0418 12.9999 17.0418C10.5837 17.0418 8.62492 15.083 8.62492 12.6668ZM19.1249 9.16679C19.1249 8.68354 19.5167 8.29179 19.9999 8.29179H21.1666C21.6498 8.29179 22.0416 8.68354 22.0416 9.16679C22.0416 9.65004 21.6498 10.0418 21.1666 10.0418H19.9999C19.5167 10.0418 19.1249 9.65004 19.1249 9.16679Z" fill="#1C252E"/>
</svg>
